<svg xmlns="http://www.w3.org/2000/svg" viewBox="0 0 899.01 135.46"><g id="レイヤー_2" data-name="レイヤー 2"><g id="レイヤー_1-2" data-name="レイヤー 1"><g id="レイヤー_1-3" data-name="レイヤー 1"><path d="M83.64,100l-3.19,7.28a22.53,22.53,0,0,1-3.79.38,54.22,54.22,0,0,1-8.83-1q-4-.75-8-1.84t-10.28-3.12q-5.12-1.65-10.17-3.08a32.64,32.64,0,0,1-10.84,6.87A33.93,33.93,0,0,1,16.09,108q-7.27,0-11.69-2.67c-2.94-1.78-4.4-4.1-4.4-7Q0,93.64,5,91T18.4,88.38A77.17,77.17,0,0,1,40,91.91a43.53,43.53,0,0,0,3.6-8.18,118.94,118.94,0,0,0,2.93-11.86L51.8,46.79q2.3-10.89,4.27-17a53.15,53.15,0,0,1,4.56-10.51,36.79,36.79,0,0,1,5.64-7.43,25.93,25.93,0,0,1,6.61-5,14.73,14.73,0,0,1,6.68-1.73,11.35,11.35,0,0,1,6.23,1.69,10.47,10.47,0,0,1,4,4.88,18.51,18.51,0,0,1,1.37,7.4,43.1,43.1,0,0,1-1.41,9.69,60.94,60.94,0,0,1-3.64,10.81l-6.9,1.05a71.18,71.18,0,0,0,5.2-12.65,40.83,40.83,0,0,0,2.08-11.52q0-4.42-1.86-6.83a6.43,6.43,0,0,0-5.42-2.4q-7.65,0-12.77,10.21a43.51,43.51,0,0,0-2.67,6.72q-1,3.42-2.75,11.3L54.45,66.85a109.66,109.66,0,0,1-4.45,16,40.26,40.26,0,0,1-5.86,10.44l1.86.6q11.2,3.75,18,5.37a51.71,51.71,0,0,0,11.76,1.61A45,45,0,0,0,83.64,100ZM35.92,97.53,34.14,97Q20.85,92.95,13.8,93,2.59,93,2.59,98.88q0,3,3.86,5.07A20.4,20.4,0,0,0,16.17,106,27,27,0,0,0,27,103.77,26.3,26.3,0,0,0,35.92,97.53Z"/><path d="M103.09,61.87l-6.53,24.7a39.66,39.66,0,0,0-1.63,9.76,8.06,8.06,0,0,0,.82,3.9,2.42,2.42,0,0,0,2.15,1.5q2.3,0,7.35-5.56l1.19,1-.74.83a72,72,0,0,1-6.23,6.79,5.86,5.86,0,0,1-3.71,1.76,4.65,4.65,0,0,1-3.9-2.37,10.34,10.34,0,0,1-1.6-5.89,45.09,45.09,0,0,1,.89-7.13l4.68-26.28Zm2.15-29.43a4.19,4.19,0,0,1,3.12,1.2,4.66,4.66,0,0,1-.07,6.3,4.17,4.17,0,0,1-6.08-.07,4.27,4.27,0,0,1-1.34-3.08,4.23,4.23,0,0,1,1.26-3.08A4.17,4.17,0,0,1,105.24,32.44Z"/><path d="M112.14,65l6.68-3.08v2q.23,11,1.26,23.05c.4,4.21.74,7.32,1,9.35a13.36,13.36,0,0,0,1,4.09,1.82,1.82,0,0,0,1.63,1q2.74,0,9.8-10.59,6.3-9.31,6.31-17.19a13.59,13.59,0,0,0-.67-4.62,10.76,10.76,0,0,0-2.52-3.72L142.28,60a13.61,13.61,0,0,1,2.6,8.41q0,10-11.73,26.35a67.14,67.14,0,0,1-7.57,8.86,21.08,21.08,0,0,1-3,2.44,4.24,4.24,0,0,1-2.26.71,2.79,2.79,0,0,1-2.6-1.43,15.89,15.89,0,0,1-1.26-5.41Z"/><path d="M179.31,94.16l1.34,1.13a35.13,35.13,0,0,1-9,8.9,17.42,17.42,0,0,1-9.43,2.74,12.34,12.34,0,0,1-9.65-4.05q-3.63-4-3.64-10.74a30.12,30.12,0,0,1,3.53-13.7A36.82,36.82,0,0,1,161.31,67q5.31-4.55,10.5-4.54a7.13,7.13,0,0,1,5,1.8,6,6,0,0,1,2,4.65q0,5.77-6.23,11.56t-17,9.83a11,11,0,0,0-.07,1.35,12.48,12.48,0,0,0,2.82,8.45,9.15,9.15,0,0,0,7.27,3.27,11.88,11.88,0,0,0,6.75-2.21A33.34,33.34,0,0,0,179.31,94.16Zm-23.75-5.71a39.86,39.86,0,0,0,12.32-8A27.29,27.29,0,0,0,172.56,74a13.8,13.8,0,0,0,1.78-6.23q0-3.53-3.19-3.53-4.83,0-9.76,7.7A37.1,37.1,0,0,0,155.56,88.45Z"/><path d="M209.07,108.72l2.75-6.76a38.3,38.3,0,0,0,15.29,3,29.29,29.29,0,0,0,17.26-5.29q7.53-5.3,13.47-16.18a82.59,82.59,0,0,0,3.79-8.22q1.86-4.62,4.6-12.95,2.29-6.9,4.49-14.9t3.71-14.6q1.51-6.6,2.93-14.72l7.94-3.6-.52-.07-1.48-.23a261.82,261.82,0,0,0-32.36-2.1,71.74,71.74,0,0,0-13.36,1.05,27.42,27.42,0,0,0-9.2,3.38q-5.19,3.3-5.2,8.48,0,10.59,26.12,12l-5.05,5.33a38.82,38.82,0,0,1-12.39-2.63,19.75,19.75,0,0,1-8.13-5.78,12.79,12.79,0,0,1-2.86-8.18q0-9.24,11.5-14.87,9.72-4.73,28.57-4.73,5.12,0,13.1.6T290.55,8.3q8.54.94,14.18,2l1.34.23-3.34,6.76-1.34-.23c-4.35-.8-9.43-1.63-15.21-2.48l-.52-.08-.22,1-.22,1.05q-5.87,27.1-12.1,44.64t-14,28q-7.8,10.5-18.15,15.24t-24.45,4.73A51.52,51.52,0,0,1,209.07,108.72Z"/><path d="M291.9,84.47q6.38-7.81,8.54-14.57-6-3.37-6-9.69a7.91,7.91,0,0,1,1.41-4.88,4.28,4.28,0,0,1,7.2.18,9.36,9.36,0,0,1,1.41,5.37,18.79,18.79,0,0,1-.82,5.18,14.54,14.54,0,0,0,3.64.53,10.82,10.82,0,0,0,7.57-2.7h3.56l-.52,1a144.56,144.56,0,0,0-8.79,19.48q-3.45,9.57-3.45,14.3a4.63,4.63,0,0,0,.89,2.89,2.62,2.62,0,0,0,2.15,1.16q3,0,9.8-6.53l1.19,1.35a53.3,53.3,0,0,1-6.46,5.78q-3.93,3.15-7.35,3.15a5.68,5.68,0,0,1-4.56-2,8,8,0,0,1-1.67-5.33q0-5.62,4.3-14.27,1.56-3.23,4-7.36t6.16-9.84l.74-1a16.34,16.34,0,0,1-4.71,3.19,13.3,13.3,0,0,1-5.16.94,11.08,11.08,0,0,1-2.82-.38,46.15,46.15,0,0,1-8.91,15.17ZM302.07,65.4a20.54,20.54,0,0,0,.3-3.15,8.5,8.5,0,0,0-.85-4.13,2.51,2.51,0,0,0-2.19-1.5,1.63,1.63,0,0,0-1.3.71,2.79,2.79,0,0,0-.56,1.76C297.46,61.45,299,63.55,302.07,65.4Z"/><path d="M339.84,61.87l-7.2,29.06a28.5,28.5,0,0,0-1,6.61,5.56,5.56,0,0,0,1.63,4.2,5.85,5.85,0,0,0,4.23,1.58q6.3,0,13.14-10.44l.3-.45c.1-.5.17-.9.22-1.2L355.88,65l7.27-3.08-6.53,24.7A39.66,39.66,0,0,0,355,96.33a8.06,8.06,0,0,0,.82,3.9,2.42,2.42,0,0,0,2.15,1.5q2.3,0,7.35-5.56l1.19,1-.74.83a72,72,0,0,1-6.23,6.79,5.86,5.86,0,0,1-3.71,1.76,4.65,4.65,0,0,1-3.9-2.37,10.34,10.34,0,0,1-1.6-5.89c0-.75,0-1.45.07-2.1q-7.72,10.37-15.29,10.36a8.31,8.31,0,0,1-6.05-2.21,7.87,7.87,0,0,1-2.26-5.89,36.57,36.57,0,0,1,.82-7l5.05-26.58Z"/><path d="M400.92,94.16l1.34,1.13a35.13,35.13,0,0,1-9,8.9,17.42,17.42,0,0,1-9.43,2.74,12.34,12.34,0,0,1-9.65-4.05q-3.63-4-3.64-10.74a30.12,30.12,0,0,1,3.53-13.7A36.82,36.82,0,0,1,382.92,67q5.31-4.55,10.5-4.54a7.13,7.13,0,0,1,5,1.8,6,6,0,0,1,2,4.65q0,5.77-6.23,11.56t-17,9.83a11,11,0,0,0-.07,1.35,12.48,12.48,0,0,0,2.82,8.45,9.15,9.15,0,0,0,7.27,3.27,11.88,11.88,0,0,0,6.75-2.21A33.1,33.1,0,0,0,400.92,94.16Zm-23.75-5.71a39.86,39.86,0,0,0,12.32-8A27.29,27.29,0,0,0,394.17,74,13.8,13.8,0,0,0,396,67.73q0-3.53-3.19-3.53-4.83,0-9.76,7.7A37.22,37.22,0,0,0,377.17,88.45Z"/><path d="M430.69,108.72l2.75-6.76a38.3,38.3,0,0,0,15.29,3A29.29,29.29,0,0,0,466,99.67q7.53-5.3,13.47-16.18a82.59,82.59,0,0,0,3.79-8.22q1.85-4.62,4.6-12.95,2.29-6.9,4.49-14.9t3.71-14.6q1.51-6.6,2.93-14.72l7.94-3.6-.52-.07-1.48-.23a261.82,261.82,0,0,0-32.36-2.1,71.74,71.74,0,0,0-13.36,1.05,27.42,27.42,0,0,0-9.2,3.38q-5.19,3.3-5.2,8.48,0,10.59,26.12,12l-5.05,5.33a38.82,38.82,0,0,1-12.39-2.63,19.75,19.75,0,0,1-8.13-5.78,12.79,12.79,0,0,1-2.86-8.18q0-9.24,11.5-14.87,9.72-4.73,28.57-4.73,5.12,0,13.1.6T512.17,8.3q8.54.94,14.18,2l1.34.23-3.34,6.76L523,17.05c-4.35-.8-9.43-1.63-15.21-2.48l-.52-.08-.22,1-.22,1.05q-5.86,27.1-12.1,44.64t-14,28a46.93,46.93,0,0,1-18.15,15.24q-10.35,4.72-24.45,4.73A51.32,51.32,0,0,1,430.69,108.72Z"/><path d="M513.51,91.38a28.33,28.33,0,0,1,3.6-13.48A32.13,32.13,0,0,1,526.42,67a19.5,19.5,0,0,1,11.65-4.2A13,13,0,0,1,548.13,67,15.31,15.31,0,0,1,552,77.72a29.82,29.82,0,0,1-3.53,14,32.18,32.18,0,0,1-9.28,11.07,19.24,19.24,0,0,1-11.62,4.32,13,13,0,0,1-10.17-4.32C514.8,99.87,513.51,96.08,513.51,91.38Zm31.77-16.52a12.06,12.06,0,0,0-2.19-7.43,6.72,6.72,0,0,0-5.6-2.93,10.16,10.16,0,0,0-6,2,19.51,19.51,0,0,0-5.23,5.93A45.7,45.7,0,0,0,521.87,83a38.87,38.87,0,0,0-1.74,10.66q0,5.57,2.15,8.56a7.12,7.12,0,0,0,6.16,3q6.45,0,11.36-9.08a45.61,45.61,0,0,0,4-10.44A44.47,44.47,0,0,0,545.28,74.86Z"/><path d="M674.2,41.37a67.76,67.76,0,0,1-3.41,20.91,80,80,0,0,1-9.57,19.78,65.32,65.32,0,0,1-11.91,13.55,48.44,48.44,0,0,1-14.06,8.52A42.3,42.3,0,0,1,620,107a32.74,32.74,0,0,1-12.8-2.48,28.23,28.23,0,0,1-10.09-7.09,31.27,31.27,0,0,1-6.42-11.19,44.43,44.43,0,0,1-2.23-14.3A69.68,69.68,0,0,1,593,47.29a76.5,76.5,0,0,1,12.17-21.51,60.67,60.67,0,0,1,17.4-14.9A40.28,40.28,0,0,1,642.45,5.4a30.67,30.67,0,0,1,16.62,4.5,30,30,0,0,1,11.17,12.69A42.83,42.83,0,0,1,674.2,41.37Zm-8.54-3.15A43,43,0,0,0,664,25.64a27.09,27.09,0,0,0-4.9-9.46,21.43,21.43,0,0,0-7.72-5.93,24.94,24.94,0,0,0-10.46-2.06,29.28,29.28,0,0,0-12.21,2.74,38.88,38.88,0,0,0-11.36,8,57.7,57.7,0,0,0-9.54,12.88A83.63,83.63,0,0,0,600,52a87,87,0,0,0-3,21.74,40.45,40.45,0,0,0,3,16.29,23.91,23.91,0,0,0,8.65,10.66,22.92,22.92,0,0,0,13,3.75,29.43,29.43,0,0,0,13.69-3.53,43.46,43.46,0,0,0,12.51-10,60.55,60.55,0,0,0,9.65-15,91.16,91.16,0,0,0,5.86-18.21A89.82,89.82,0,0,0,665.66,38.22Z"/><path d="M676,106.54l7.87-41.6,7-3.08-6.38,27.55q6.16-13.14,12.25-20t11.65-6.83a5.78,5.78,0,0,1,4.45,1.84,7,7,0,0,1,1.71,4.92,20.76,20.76,0,0,1-.82,4.88L713,77.4l-2.23,9.16-.74,2.93a31.37,31.37,0,0,0-1.11,6.91,7.88,7.88,0,0,0,.82,3.87,2.41,2.41,0,0,0,2.15,1.46q2.3,0,7.35-5.56l1.19,1-.74.83a72,72,0,0,1-6.23,6.79,5.86,5.86,0,0,1-3.71,1.76,4.65,4.65,0,0,1-3.9-2.37,10.34,10.34,0,0,1-1.6-5.89,42.58,42.58,0,0,1,.89-7.13l2.89-15.92a38.58,38.58,0,0,0,.59-5.25,3.25,3.25,0,0,0-.82-2.4,3,3,0,0,0-2.23-.83q-5.12,0-12.62,11.11a70.75,70.75,0,0,0-6,10.55,139.11,139.11,0,0,0-5.34,14.45l-.67,2Z"/><path d="M754.87,94.16l1.34,1.13a35.13,35.13,0,0,1-9,8.9,17.42,17.42,0,0,1-9.43,2.74,12.34,12.34,0,0,1-9.65-4.05q-3.63-4-3.64-10.74A30.12,30.12,0,0,1,728,78.44,36.82,36.82,0,0,1,736.87,67q5.31-4.55,10.5-4.54a7.13,7.13,0,0,1,5,1.8,6,6,0,0,1,2,4.65q0,5.77-6.23,11.56t-17,9.83a11,11,0,0,0-.07,1.35,12.48,12.48,0,0,0,2.82,8.45,9.15,9.15,0,0,0,7.27,3.27,11.88,11.88,0,0,0,6.75-2.21A33.1,33.1,0,0,0,754.87,94.16Zm-23.75-5.71a39.86,39.86,0,0,0,12.32-8A27.29,27.29,0,0,0,748.12,74a13.8,13.8,0,0,0,1.78-6.23q0-3.53-3.19-3.53-4.83,0-9.76,7.7A37.1,37.1,0,0,0,731.12,88.45Z"/><path d="M757.25,101l4.16-5q3.27,7.81,10.39,7.81a9,9,0,0,0,6.35-2.44,7.51,7.51,0,0,0,2.63-5.67,6.37,6.37,0,0,0-1.26-4,45,45,0,0,0-6-5.56,36.69,36.69,0,0,1-5.9-5.67,7.87,7.87,0,0,1-1.52-4.77,11.39,11.39,0,0,1,2-6.53,15.65,15.65,0,0,1,12.66-6.68,9.07,9.07,0,0,1,5.6,1.69,5.18,5.18,0,0,1,2.26,4.32,4.71,4.71,0,0,1-2.89,4.73,8.69,8.69,0,0,0-2.63-5.52,8,8,0,0,0-5.6-2,7.77,7.77,0,0,0-5.31,2A5.92,5.92,0,0,0,770,72.3q0,3.15,3.86,6.23l4.3,3.53q6.32,5,6.31,10.29a13.33,13.33,0,0,1-2.19,7.32,15.84,15.84,0,0,1-5.94,5.44,16.39,16.39,0,0,1-7.9,2Q761.76,107.14,757.25,101Z"/><path d="M824,94.16l1.34,1.13a35.13,35.13,0,0,1-9,8.9,17.42,17.42,0,0,1-9.43,2.74,12.34,12.34,0,0,1-9.65-4.05q-3.63-4-3.64-10.74a30.12,30.12,0,0,1,3.53-13.7A36.82,36.82,0,0,1,806,67q5.31-4.55,10.5-4.54a7.13,7.13,0,0,1,5,1.8,6,6,0,0,1,2,4.65q0,5.77-6.23,11.56t-17,9.83a11,11,0,0,0-.07,1.35,12.48,12.48,0,0,0,2.82,8.45,9.15,9.15,0,0,0,7.27,3.27,11.88,11.88,0,0,0,6.75-2.21A33.1,33.1,0,0,0,824,94.16Zm-23.75-5.71a39.86,39.86,0,0,0,12.32-8A27.29,27.29,0,0,0,817.29,74a13.8,13.8,0,0,0,1.78-6.23q0-3.53-3.19-3.53-4.83,0-9.76,7.7A37.22,37.22,0,0,0,800.29,88.45Z"/><path d="M858.33,0,838.81,86.57l-.67,2.93a31.72,31.72,0,0,0-1,7,7.44,7.44,0,0,0,.85,3.79,2.45,2.45,0,0,0,2.12,1.46q2.29,0,7.35-5.56l1.19,1-.74.83a72,72,0,0,1-6.23,6.79A5.86,5.86,0,0,1,838,106.6q-2.22,0-3.9-2.52a10.17,10.17,0,0,1-1.67-5.74,41.58,41.58,0,0,1,1-7.13l17.14-87.4Z"/><path d="M861.6,65.7h-7.27l.52-2.55h7.35l7-33a94.33,94.33,0,0,1,3.64-13.06,35.42,35.42,0,0,1,4.45-8.41Q883.65.08,893.15.09a15.86,15.86,0,0,1,5.86,1L896.34,8a8.94,8.94,0,0,0-7.57-4.2,6.92,6.92,0,0,0-5.68,2.74q-2.19,2.74-3.75,9.05L868,63.16h11.95l-.52,2.55h-12l-10.17,42.65a74,74,0,0,1-3.9,12.76,29.74,29.74,0,0,1-5.16,7.81q-5.94,6.52-13,6.53a14.74,14.74,0,0,1-6.09-1.2l3.64-5.41a10.46,10.46,0,0,0,6.75,2.55q5.49,0,8.24-5.86,2-4.35,4.23-14.42Z"/></g></g></g></svg>